<svg xmlns="http://www.w3.org/2000/svg" width="250" height="250" viewBox="0 0 250 250">
<!-- SVG created with Arrow, by QuiverAI (https://quiver.ai) -->
  <path d="m175 213.6 52.88-30.29v-52.54l-12.15-7.03-40.73 25.3v64.56z" fill="#afffb6" stroke="#00c00d" stroke-linejoin="round" stroke-width=".8"/>
  <path d="m227.9 130.8-12.15-7.03-28.92 17.32 10.53-4.93 6.59 7.7 23.95-13.06z" fill="#afffb6" stroke="#00c00d" stroke-linejoin="round" stroke-width=".8"/>
  <path d="m175 213.6-17.87-10.86v-23.65l17.87-8.97v43.48z" fill="#3efd4f" stroke="#00c00d" stroke-linejoin="round" stroke-width=".8"/>
  <path d="m157.1 174.6 13.06 5.27-8.36 6.17-4.7-0.86v-10.58z" fill="#afffb6" stroke="#00c00d" stroke-linejoin="round" stroke-width=".8"/>
  <path d="m21.14 130.3 11.55-6.55 22.03 12.39v4.93l-8.97 3.76-24.61-14.53z" fill="#afffb6" stroke="#00c00d" stroke-linejoin="round" stroke-width=".8"/>
  <path d="m21.14 130.3 52.88 31.34v51.97l-52.88-30.29v-53.02z" fill="#3efd4f" stroke="#00c00d" stroke-linejoin="round" stroke-width=".8"/>
  <path d="m74.02 213.6 14.19-8.73v-20.12l-14.19-3.84v32.69z" fill="#afffb6" stroke="#00c00d" stroke-linejoin="round" stroke-width=".8"/>
  <path d="m78.18 180.4 10.03-5.3v10.1l-10.03-4.8z" fill="#afffb6" stroke="#00c00d" stroke-linejoin="round" stroke-width=".8"/>
  <path d="m78.18 32.51 46.7-26.71 45.77 27.19-0.72 12.63-19.48 11.91-2.14-11.43-23.91-15.21-23.43 14.49-22.79-12.87z" fill="#afffb6" stroke="#00c00d" stroke-linejoin="round" stroke-width=".8"/>
  <path d="m78.18 32.51 22.79 12.87v12.39l-22.79-12.39v-12.87z" fill="#3efd4f" stroke="#00c00d" stroke-linejoin="round" stroke-width=".8"/>
  <path d="m148.3 45.86 22.34-13.35v13.35l-22.34 13.83v-13.83z" fill="#afffb6" stroke="#00c00d" stroke-linejoin="round" stroke-width=".8"/>
  <path d="m182.6 39.19 45.78 26v52.94l-53.36 30.9v-53.42l-26.67-37.84 34.25-18.58z" fill="#afffb6" stroke="#00c00d" stroke-linejoin="round" stroke-width=".8"/>
  <path d="m175 95.61-37.36-21.85 19.49-10.87-8.8-5.12v7.42l8.32-2.3-19.01 10.87v16.86l23.43 12.88v22.95l13.93 8.27v-39.11z" fill="#3efd4f" stroke="#00c00d" stroke-linejoin="round" stroke-width=".8"/>
  <path d="m182.6 39.19-34.25 18.58 8.8 5.12-19.49 10.87 37.36 21.85 53.36-30.42-45.78-26z" fill="#afffb6" stroke="#00c00d" stroke-linejoin="round" stroke-width=".8"/>
  <path d="m175 123.7v10.99l-13.93-8.27 13.93-2.72z" fill="#3efd4f" stroke="#00c00d" stroke-linejoin="round" stroke-width=".8"/>
  <path d="m194.2 123.7-11.19 7.03 11.19 6.35v-13.38z" fill="#3efd4f" stroke="#00c00d" stroke-linejoin="round" stroke-width=".8"/>
  <path d="m154.7 140.5 15.19-9.29 33.98 10.28v28.6l-24.62 14.15-24.55-14.15v-29.59z" fill="#3efd4f" stroke="#00c00d" stroke-linejoin="round" stroke-width=".8"/>
  <path d="m154.7 140.5 28.3-11.19 20.87 12.18-24.62 14.93-24.55-15.92z" fill="#afffb6" stroke="#00c00d" stroke-linejoin="round" stroke-width=".8"/>
  <path d="m179.3 156.4v27.82l24.62-14.15v-28.6l-24.62 14.93z" fill="#afffb6" stroke="#00c00d" stroke-linejoin="round" stroke-width=".8"/>
  <path d="m21.14 64.79 45.78-25.6 34.05 18.58-8.79 5.6 19.01 10.39-37.17 21.85-52.88-30.82z" fill="#afffb6" stroke="#00c00d" stroke-linejoin="round" stroke-width=".8"/>
  <path d="m21.14 64.79 52.88 30.82v39.11l-52.88-16.59v-53.34z" fill="#3efd4f" stroke="#00c00d" stroke-linejoin="round" stroke-width=".8"/>
  <path d="m74.02 134.7-19.3-10.99v10.99l19.3-7.79v7.79z" fill="#afffb6" stroke="#00c00d" stroke-linejoin="round" stroke-width=".8"/>
  <path d="m74.02 95.61 37.17-21.85v17.82l-22.98 11.92v22.95l-14.19 8.27v-39.11z" fill="#afffb6" stroke="#00c00d" stroke-linejoin="round" stroke-width=".8"/>
  <path d="m101 45.38 23.43-14.49 23.91 14.97v21.38l-10.69 6.52v7.79l-13.22 7.15-23.43-21.46v-21.86z" fill="#3efd4f" stroke="#00c00d" stroke-linejoin="round" stroke-width=".8"/>
  <path d="m124.4 59.69 23.91-13.83v21.38l-10.69 6.52v7.79l-13.22 7.15v-29.01z" fill="#afffb6" stroke="#00c00d" stroke-linejoin="round" stroke-width=".8"/>
  <path d="m111.7 81.07 17.87 5.3-5.14 15.2-12.73-9.99v-10.51z" fill="#afffb6" stroke="#00c00d" stroke-linejoin="round" stroke-width=".8"/>
  <path d="m129.5 86.37 8.08-4.82v10.03l-13.22 9.99 5.14-3.38v-11.82z" fill="#afffb6" stroke="#00c00d" stroke-linejoin="round" stroke-width=".8"/>
  <path d="m88.7 103.5 19.56-11.92 16.14 9.99 36.65 1.93v23.43l-15.66 9.19v24.54l-20.99 11.84-20.42-11.84-0.24-24.54-15.04-9.19v-23.43z" fill="#3efd4f" stroke="#00c00d" stroke-linejoin="round" stroke-width=".8"/>
  <path d="m124.4 124.6 36.65-21.08v23.43l-15.66 9.19v24.54l-20.99 11.84v-47.92z" fill="#afffb6" stroke="#00c00d" stroke-linejoin="round" stroke-width=".8"/>
  <path d="m88.7 126.9 15.04 9.19v24.54l-15.04-9.26v-24.47z" fill="#afffb6" stroke="#00c00d" stroke-linejoin="round" stroke-width=".8"/>
  <path d="m161 126.9v9.19l-15.66 6.31v6.6l8.4 5.3-8.4 2.11v-20.32l15.66-9.19z" fill="#afffb6" stroke="#00c00d" stroke-linejoin="round" stroke-width=".8"/>
  <path d="m45.75 141.5 19.97-12.18 8.3 5.39 20.7 6.79-25.1 14.93-23.87-14.93z" fill="#afffb6" stroke="#00c00d" stroke-linejoin="round" stroke-width=".8"/>
  <path d="m45.75 141.5 23.87 14.93v26.86l-23.87-13.67v-28.12z" fill="#3efd4f" stroke="#00c00d" stroke-linejoin="round" stroke-width=".8"/>
  <path d="m69.62 156.4 25.1-14.93v21.86l-25.1 20.45v-27.38z" fill="#afffb6" stroke="#00c00d" stroke-linejoin="round" stroke-width=".8"/>
  <path d="m88.7 167.7 15.04-8.01 20.66 12.79 36.65-4.78v54.6l-36.65 21.86-36.19-21.86 0.49-54.6z" fill="#3efd4f" stroke="#00c00d" stroke-linejoin="round" stroke-width=".8"/>
  <path d="m124.4 188.6 36.65-20.89v54.6l-36.65 21.86v-55.57z" fill="#afffb6" stroke="#00c00d" stroke-linejoin="round" stroke-width=".8"/>
  <path d="m88.7 167.7 35.7 20.89v55.57l-35.7-21.86v-54.6z" fill="#3efd4f" stroke="#00c00d" stroke-linejoin="round" stroke-width=".8"/>
  <path d="m89.66 103.5 34.74 21.08 36.17-21.56-20.5-11.92-15.67 10.47-16.14-9.99-18.6 11.92z" fill="#afffb6" stroke="#00c00d" stroke-linejoin="round" stroke-width=".8"/>
</svg>